<svg width="36" height="36" xmlns="http://www.w3.org/2000/svg" xmlns:xlink="http://www.w3.org/1999/xlink" viewBox="0 0 512 512">
	<defs>
		<circle id="a" cx="255.967" cy="256.274" r="200" />
	</defs>
	<use xlink:href="#a" fill="#eee" overflow="visible" />
	<clipPath id="b">
		<use xlink:href="#a" overflow="visible" />
	</clipPath>
	<g fill="#bf360c" clip-path="url(#b)">
		<path
			d="m517.221 421.071-5.629-35.243 1.242-.175 2.71-.536 3.944-.767 7.751 34.837-5 .986-3.44.667-1.578.231z" />
		<path stroke="#424242" stroke-miterlimit="10" stroke-width="5.6"
			d="m523.363 401.769-5.743 1.125c-1.715.382-3.751.621-5.922.944l-3.349.481-3.478.322-3.478.321c-1.147.102-2.283.11-3.378.168l-3.161.132-1.464.06-1.369-.012-5.852-.049" />
		<path
			d="m475.398 422.423 3.357-35.531 1.245.138c.749.061 1.75.103 2.75.165l2.75.163c.75.045 1.25.069 1.25.069l-1.159 35.671s-.638-.029-1.594-.083l-3.506-.203c-1.274-.08-2.55-.143-3.505-.22l-1.588-.169z" />
		<path stroke="#424242" stroke-miterlimit="10" stroke-width="5.6"
			d="M486.17 405.262s-.584-.028-1.607-.087l-4.235-.247c-1.756-.057-3.787-.347-5.97-.565-1.089-.127-2.221-.219-3.36-.386l-3.45-.547-3.449-.554-3.312-.693-3.097-.648c-.985-.201-1.896-.479-2.749-.688l-4.105-1.07a15.222 15.222 0 0 1-1.144-.322l-.401-.126" />
		<path
			d="m434.577 413.261 12.118-33.569 1.177.434 1.207.443 1.407.437 3.829 1.2-10.046 34.247-4.87-1.523-1.787-.563-1.536-.557-1.499-.549z" />
		<path stroke="#424242" stroke-miterlimit="10" stroke-width="5.6"
			d="m449.291 399.329-5.585-1.748c-1.662-.564-3.575-1.299-5.638-2.046l-1.568-.577-1.577-.666-3.218-1.359c-2.178-.862-4.246-1.969-6.237-2.891-1.998-.911-3.777-1.929-5.326-2.756-1.537-.849-2.852-1.495-3.713-2.051l-1.378-.831" />
		<path d="m397.343 394.287 20.032-29.537 3.337 2.235 3.442 2.071-18.207 30.696-4.364-2.636-4.24-2.829z" />
		<path stroke="#424242" stroke-miterlimit="10" stroke-width="5.6"
			d="m415.051 384.404-1.378-.831c-.863-.55-2.16-1.237-3.603-2.238a9117.9 9117.9 0 0 0-4.983-3.339l-5.524-4.094c-7.446-5.7-14.016-12.399-14.016-12.399" />
		<path
			d="m365.927 366.713 26.717-23.663 2.709 2.959a33.544 33.544 0 0 0 1.913 1.986l.892.882-25.223 25.25-1.131-1.124a50.415 50.415 0 0 1-2.432-2.526l-3.445-3.764z" />
		<path stroke="#424242" stroke-miterlimit="10" stroke-width="5.6"
			d="m385.547 361.502-1.143-1.133c-.746-.703-1.736-1.78-2.915-3.081-2.416-2.549-5.447-6.121-8.337-9.803-1.39-1.882-2.846-3.719-4.095-5.522l-3.362-4.967c-.946-1.479-1.68-2.745-2.22-3.615l-.835-1.375" />
		<path
			d="m342.326 332.15 31.787-16.228 1.912 3.521c.485.876.932 1.774 1.325 2.415l.652 1.069-30.726 18.157-.826-1.366c-.497-.819-1.079-1.957-1.697-3.074l-2.427-4.494z" />
		<path stroke="#424242" stroke-miterlimit="10" stroke-width="5.6"
			d="m362.64 332.005-.835-1.375c-.51-.888-1.19-2.184-2.031-3.725l-1.35-2.493c-.481-.883-.905-1.857-1.389-2.841-.926-1.989-2.018-4.064-2.871-6.246l-1.348-3.222-.661-1.58-.573-1.57-2.031-5.644-1.702-5.599" />
		<path
			d="m328.149 292.793 34.825-7.808.976 3.897c.248.973.469 1.954.676 2.678l.368 1.199-34.289 9.902-.46-1.526c-.261-.919-.552-2.16-.867-3.395l-1.229-4.947z" />
		<path stroke="#424242" stroke-miterlimit="10" stroke-width="5.6"
			d="m347.85 297.71-.468-1.54-1.031-4.115c-.427-1.703-.947-3.685-1.328-5.848l-.651-3.32-.334-1.707-.252-1.735c-.311-2.319-.716-4.628-.928-6.812l-.552-5.973c-.125-1.75-.148-3.215-.203-4.237l-.067-1.608" />
		<path
			d="m324.17 251.153 35.672 1.1-.03 4.007a49.201 49.201 0 0 0 .059 4.006l-35.673 1.1s-.141-2.55-.076-5.105l.048-5.108z" />
		<path stroke="#424242" stroke-miterlimit="10" stroke-width="5.6"
			d="m342.036 260.816-.067-1.608c-.042-1.023.007-2.486.011-4.242.019-1.755-.004-3.805.167-5.994l.197-3.377.107-1.736.188-1.743.376-3.472c.116-1.146.242-2.273.435-3.354l.947-5.923 1.198-5.728" />
		<path
			d="M330.736 209.819 365 219.808s-.168.473-.343 1.205l-.692 2.669-.7 2.667-.262 1.225-34.811-7.871.339-1.559.88-3.397.888-3.395c.231-.929.437-1.533.437-1.533z" />
		<path stroke="#424242" stroke-miterlimit="10" stroke-width="5.6"
			d="M345.597 223.638s.102-.577.348-1.571l1.07-4.105c.226-.848.451-1.773.726-2.74l.945-3.019 1.011-3.229c.358-1.095.789-2.184 1.184-3.286l1.203-3.279c.393-1.083.874-2.112 1.288-3.127.872-2.014 1.603-3.93 2.402-5.495l1.835-3.825c.439-.925.708-1.445.708-1.445" />
		<path
			d="m347.375 171.471 30.727 18.155s-1.075 1.699-1.989 3.488l-1.911 3.532-31.771-16.26 2.419-4.488c1.175-2.264 2.525-4.427 2.525-4.427z" />
		<path stroke="#424242" stroke-miterlimit="10" stroke-width="5.6"
			d="m358.316 188.517 2.78-5.149c1.748-3.043 4.125-7.082 6.793-10.93 1.264-1.972 2.697-3.825 3.999-5.592.66-.876 1.27-1.746 1.899-2.53l1.795-2.194c1.116-1.354 2.026-2.501 2.697-3.274l1.077-1.195" />
		<path
			d="m372.948 138.418 25.292 25.181-.884.89c-.52.544-1.262 1.222-1.924 1.977l-2.686 2.984-26.778-23.595 3.416-3.788c.847-.953 1.778-1.828 2.441-2.517l1.123-1.132z" />
		<path stroke="#424242" stroke-miterlimit="10" stroke-width="5.6"
			d="m379.357 157.653 1.078-1.196c.695-.752 1.644-1.868 2.861-3.132l4.224-4.259c1.58-1.522 3.334-3.073 5.053-4.663 1.743-1.561 3.586-3.008 5.262-4.425.831-.717 1.687-1.345 2.492-1.948l2.267-1.702 1.916-1.438 1.527-1.04 1.333-.902" />
		<path
			d="m405.949 112.706 18.209 30.695-3.427 2.078c-.861.513-1.665 1.114-2.294 1.524l-1.037.703-20.065-29.515 1.322-.895c.801-.524 1.835-1.276 2.928-1.936l4.364-2.654z" />
		<path stroke="#424242" stroke-miterlimit="10" stroke-width="5.6"
			d="M407.367 132.948s7.708-5.349 16.089-9.555c8.332-4.306 17.201-7.368 17.201-7.368" />
		<path
			d="m444.343 96.071 9.958 34.272-3.84 1.166c-.969.265-1.899.644-2.609.891l-1.179.426-12.032-33.6 1.501-.539c.904-.315 2.094-.781 3.321-1.13l4.88-1.486z" />
		<path stroke="#424242" stroke-miterlimit="10" stroke-width="5.6"
			d="m440.657 116.025 1.514-.545 1.738-.626 2.292-.698c1.685-.494 3.629-1.145 5.75-1.706l6.672-1.663 6.748-1.323c2.159-.391 4.196-.625 5.931-.893l2.372-.34 1.839-.17 1.603-.148" />
		<path
			d="m485.626 89.496 1.16 35.67-4.005.164c-1.001.043-1.997.176-2.746.234l-1.248.116-3.349-35.532 1.588-.146c.954-.076 2.222-.229 3.497-.29l5.103-.216z" />
		<path stroke="#424242" stroke-miterlimit="10" stroke-width="5.6"
			d="M477.113 107.914s9.331-.987 18.702-.62c9.374.256 18.623 1.832 18.623 1.832" />
		<path
			d="m527.296 93.419-7.813 34.824-3.924-.822c-.977-.23-1.971-.362-2.712-.481l-1.237-.195 5.658-35.238 1.576.251c.945.154 2.209.334 3.455.616l4.997 1.045z" />
		<path stroke="#424242" stroke-miterlimit="10" stroke-width="5.6"
			d="M514.438 109.126a1014.175 1014.175 0 0 0 3.412.546l2.345.491 2.774.581c.985.205 2.026.41 3.083.707 2.118.572 4.401 1.102 6.642 1.777 2.23.711 4.477 1.372 6.553 2.081l5.631 2.066c1.639.629 2.971 1.237 3.919 1.624l1.482.626" />
		<path
			d="m566.64 107.585-16.208 31.797-3.622-1.734c-.909-.425-1.799-.894-2.496-1.178l-1.157-.485 14.247-32.723 1.467.623c.883.367 2.019.948 3.173 1.489l4.596 2.211z" />
		<path stroke="#424242" stroke-miterlimit="10" stroke-width="5.6"
			d="m550.28 119.624 1.482.626c.936.416 2.246 1.068 3.832 1.822l2.556 1.226c.902.443 1.823.972 2.792 1.486 1.928 1.048 4.011 2.119 5.992 3.369 4.048 2.354 7.914 5.003 10.787 7.018l4.702 3.485" />
		<path
			d="m601.209 131.068-23.55 26.817-.93-.842c-.569-.493-1.359-1.113-2.133-1.752l-2.135-1.75c-.579-.482-.978-.787-.978-.787l21.879-28.197s.505.388 1.243.996l2.715 2.218c.983.812 1.979 1.607 2.702 2.233l1.187 1.064z" />
		<path stroke="#424242" stroke-miterlimit="10" stroke-width="5.6"
			d="M582.423 138.655s.463.356 1.253 1.009l3.284 2.686c1.388 1.078 2.862 2.504 4.505 3.958.806.744 1.678 1.472 2.493 2.287l2.48 2.459c.824.831 1.677 1.634 2.465 2.474a13011.356 13011.356 0 0 1 4.42 4.829c.659.759 1.254 1.501 1.819 2.174l2.71 3.264c.644.796.98 1.275.98 1.275" />
		<path
			d="m628.924 162.39-29.481 20.114-.701-1.038a33.385 33.385 0 0 0-1.596-2.246l-2.407-3.206 28.189-21.888 3.066 4.083a50.553 50.553 0 0 1 2.034 2.86l.896 1.321z" />
		<path stroke="#424242" stroke-miterlimit="10" stroke-width="5.6"
			d="m608.833 165.07 3.514 4.68 3.369 4.962c.633.897 1.225 1.864 1.816 2.853l1.813 2.985.91 1.499.833 1.527 1.61 2.975c1.084 1.91 1.932 3.775 2.693 5.357.748 1.588 1.412 2.893 1.808 3.837l.621 1.485" />
		<path
			d="m647.951 199.665-33.58 12.089-.424-1.179c-.271-.702-.555-1.667-.964-2.583l-1.549-3.697 32.774-14.128 1.968 4.712c.51 1.171.891 2.391 1.233 3.285l.542 1.501z" />
		<path stroke="#424242" stroke-miterlimit="10" stroke-width="5.6"
			d="m627.822 197.231.621 1.484c.384.949.984 2.285 1.613 3.924l2.033 5.643c.734 2.068 1.345 4.331 2.047 6.563l.507 1.678.421 1.688.818 3.283c.573 2.12.942 4.135 1.277 5.859l.811 4.164.229 1.593" />
		<path
			d="m657.097 240.447-35.527 3.408-.114-1.248c-.066-.749-.144-1.749-.312-2.739l-.572-3.973 35.252-5.571.725 5.05c.202 1.259.311 2.531.398 3.484l.15 1.589z" />
		<path stroke="#424242" stroke-miterlimit="10" stroke-width="5.6"
			d="m638.199 233.11.833 5.792.553 5.973.147 1.665.071 1.71.146 3.49c.152 2.338.043 4.68.048 6.874-.021 1.097.008 2.159-.053 3.163l-.166 2.83c-.108 1.752-.175 3.214-.26 4.234l-.173 1.6" />
		<path
			d="m655.808 282.278-35.248-5.599.197-1.237c.102-.745.317-1.727.396-2.726l.43-3.984 35.526 3.417-.552 5.078c-.113 1.273-.367 2.526-.5 3.475l-.249 1.576z" />
		<path stroke="#424242" stroke-miterlimit="10" stroke-width="5.6"
			d="m639.346 270.44-.173 1.6c-.12 1.017-.248 2.475-.478 4.215l-.939 5.924c-.366 2.164-.906 4.443-1.367 6.738-1.057 4.56-2.287 9.08-3.394 12.413-.517 1.678-.957 3.073-1.334 4.026l-.554 1.511" />
		<path
			d="m644.117 322.434-32.746-14.193 1.565-3.697c.381-.928.697-1.882.964-2.585l.432-1.178 33.549 12.174-.549 1.497c-.339.894-.751 2.102-1.233 3.283-.992 2.348-1.982 4.699-1.982 4.699z" />
		<path stroke="#424242" stroke-miterlimit="10" stroke-width="5.6"
			d="M631.106 306.868s-3.11 8.852-7.437 17.171l-3.267 6.051-3.097 5.137c-.883 1.518-1.765 2.69-2.314 3.555l-.896 1.337" />
		<path
			d="m622.88 358.425-28.232-21.833 2.389-3.228c.6-.806 1.209-1.604 1.61-2.243l.697-1.044 29.504 20.081-.888 1.322c-.516.806-1.282 1.825-2.041 2.85l-3.039 4.095z" />
		<path stroke="#424242" stroke-miterlimit="10" stroke-width="5.6"
			d="m614.095 340.118-.896 1.337c-.544.869-1.461 2.012-2.493 3.432-1.052 1.405-2.231 3.082-3.655 4.754-1.412 1.679-2.815 3.558-4.423 5.262a14162 14162 0 0 0-3.484 3.867l-1.175 1.188c-1.552 1.551-2.973 3.027-4.239 4.243l-4.316 3.951" />
		<path
			d="m593.367 388.046-21.935-28.153.276-.206c.175-.132.431-.313.715-.56l2.119-1.764 2.124-1.758c.294-.234.525-.447.685-.597l.253-.233 23.619 26.756-.324.295c-.205.19-.499.458-.871.76l-2.698 2.244-2.703 2.238c-.364.311-.688.545-.91.714l-.35.264z" />
		<path stroke="#424242" stroke-miterlimit="10" stroke-width="5.6"
			d="m589.414 368.152-.311.284c-.198.19-.501.455-.899.777l-3.265 2.71c-.683.551-1.39 1.189-2.198 1.789l-2.53 1.9-2.705 2.032-2.888 1.964-2.893 1.958c-.962.634-1.947 1.196-2.88 1.774-1.884 1.124-3.601 2.247-5.167 3.043l-3.731 2.02c-.901.487-1.418.76-1.418.76" />
		<path
			d="m557.36 409.387-14.183-32.75 1.157-.48c.695-.287 1.584-.75 2.491-1.175l3.617-1.726 16.174 31.814-4.605 2.209c-1.156.541-2.296 1.119-3.179 1.489l-1.472.619z" />
		<path stroke="#424242" stroke-miterlimit="10" stroke-width="5.6"
			d="m558.529 389.163-5.279 2.526-1.235.591-1.352.566-2.918 1.221c-1.017.412-2.049.886-3.131 1.28l-3.287 1.184-3.286 1.183-3.237.984c-2.103.627-4.048 1.274-5.764 1.656l-5.678 1.416" />
	</g>
	<g fill="#bf360c" clip-path="url(#b)">
		<path
			d="m24.137 423.115-.692-35.683 1.254-.001 2.758-.155 4.013-.214 2.85 35.576-5.089.284-3.5.184-1.594.009z" />
		<path stroke="#424242" stroke-miterlimit="10" stroke-width="5.6"
			d="m32.895 404.851-5.843.319c-1.752.141-3.801.095-5.996.114l-3.383.013-3.489-.163-3.489-.164c-1.15-.058-2.276-.207-3.369-.302a3829.475 3829.475 0 0 1-4.606-.451l-1.354-.201-5.789-.859" />
		<path
			d="m-17.47 418.661 8.248-34.724 1.213.309c.733.164 1.719.344 2.7.544l2.701.542c.736.149 1.228.242 1.228.242l-6.09 35.166s-.628-.117-1.567-.302l-3.444-.687c-1.251-.255-2.506-.494-3.44-.704l-1.549-.386z" />
		<path stroke="#424242" stroke-miterlimit="10" stroke-width="5.6"
			d="M-4.424 403.157s-.575-.108-1.579-.309l-4.161-.832c-1.731-.3-3.702-.868-5.834-1.387-1.062-.277-2.169-.525-3.275-.847l-3.341-1.02-3.338-1.026-3.184-1.145-2.977-1.071c-.948-.336-1.812-.737-2.627-1.063l-3.917-1.628a15.011 15.011 0 0 1-1.088-.478l-.38-.18" />
		<path
			d="m-56.628 403.932 16.652-31.567a2369.801 2369.801 0 0 0 2.239 1.198l1.333.627 3.625 1.719-14.693 32.525-4.612-2.184-1.692-.805a693.94 693.94 0 0 0-1.444-.764l-1.408-.749z" />
		<path stroke="#424242" stroke-miterlimit="10" stroke-width="5.6"
			d="m-40.125 392.172-5.289-2.505c-1.568-.789-3.36-1.782-5.3-2.807l-1.473-.789-1.47-.878-2.999-1.792c-2.038-1.155-3.933-2.538-5.776-3.727-1.853-1.179-3.474-2.434-4.893-3.467-1.404-1.054-2.617-1.875-3.393-2.546l-1.25-1.014" />
		<path d="m-90.875 379.982 23.932-26.477 2.996 2.676 3.122 2.527-22.284 27.878-3.956-3.215-3.81-3.389z" />
		<path stroke="#424242" stroke-miterlimit="10" stroke-width="5.6"
			d="m-71.968 372.647-1.25-1.014c-.779-.665-1.967-1.525-3.258-2.716l-4.472-3.997-4.903-4.82c-6.585-6.677-12.163-14.221-12.163-14.221" />
		<path
			d="m-118.167 348.321 29.738-19.733 2.273 3.306c.55.839 1.155 1.64 1.619 2.232l.761.997-28.478 21.512-.964-1.27a50.404 50.404 0 0 1-2.059-2.838l-2.89-4.206z" />
		<path stroke="#424242" stroke-miterlimit="10" stroke-width="5.6"
			d="m-98.014 345.879-.975-1.28c-.641-.8-1.473-2.003-2.46-3.455-2.04-2.859-4.546-6.817-6.899-10.863-1.116-2.057-2.303-4.077-3.29-6.037l-2.642-5.385c-.732-1.595-1.284-2.951-1.697-3.888l-.637-1.478" />
		<path
			d="m-136.751 310.821 33.729-11.667 1.406 3.752c.358.935.677 1.886.978 2.575l.498 1.149-32.945 13.725-.629-1.467c-.378-.879-.798-2.087-1.254-3.279-.893-2.394-1.783-4.788-1.783-4.788z" />
		<path stroke="#424242" stroke-miterlimit="10" stroke-width="5.6"
			d="m-116.614 313.493-.637-1.478c-.382-.95-.876-2.327-1.495-3.97l-.991-2.656c-.354-.941-.639-1.965-.982-3.007-.642-2.098-1.436-4.304-1.979-6.583l-.888-3.378-.436-1.656-.349-1.634-1.229-5.871-.91-5.781" />
		<path
			d="m-145.339 269.881 35.571-2.909.427 3.995c.111.999.194 2 .298 2.746l.198 1.238-35.33 5.056-.245-1.575c-.131-.947-.248-2.216-.389-3.482l-.53-5.069z" />
		<path stroke="#424242" stroke-miterlimit="10" stroke-width="5.6"
			d="m-126.51 277.479-.25-1.589-.451-4.219c-.187-1.746-.428-3.78-.504-5.975l-.185-3.378-.095-1.737-.009-1.753c.014-2.34-.068-4.683.024-6.875l.281-5.992c.119-1.751.298-3.204.386-4.225l.156-1.602" />
		<path
			d="m-143.511 228.091 35.177 6.031-.585 3.964c-.341 1.976-.497 3.976-.497 3.976l-35.481-3.853s.214-2.545.632-5.066l.754-5.052z" />
		<path stroke="#424242" stroke-miterlimit="10" stroke-width="5.6"
			d="m-127.157 240.135.156-1.602c.101-1.019.352-2.462.598-4.2.262-1.736.523-3.769.997-5.913l.663-3.317.347-1.705.429-1.7.854-3.387c.273-1.12.554-2.218.895-3.262l1.759-5.734 1.98-5.507" />
		<path
			d="m-131.282 188.064 32.549 14.639s-.232.446-.507 1.146l-1.055 2.547-1.063 2.544-.429 1.177-33.385-12.618.552-1.497 1.343-3.242 1.35-3.239c.358-.887.645-1.457.645-1.457z" />
		<path stroke="#424242" stroke-miterlimit="10" stroke-width="5.6"
			d="M-118.479 203.809s.181-.557.562-1.507l1.628-3.918c.342-.808.692-1.693 1.099-2.613l1.354-2.859 1.449-3.058c.506-1.035 1.084-2.054 1.627-3.09l1.646-3.081c.539-1.019 1.158-1.971 1.709-2.919 1.143-1.873 2.131-3.67 3.141-5.109l2.348-3.534c.563-.856.901-1.333.901-1.333" />
		<path
			d="m-109.49 152.392 27.915 22.238s-1.3 1.533-2.453 3.178l-2.382 3.234-29.211-20.505 3.018-4.11c1.476-2.08 3.113-4.035 3.113-4.035z" />
		<path stroke="#424242" stroke-miterlimit="10" stroke-width="5.6"
			d="m-101.017 170.789 3.467-4.714c2.152-2.771 5.067-6.441 8.243-9.883 1.525-1.778 3.201-3.415 4.734-4.984.775-.776 1.5-1.553 2.231-2.242l2.081-1.924c1.293-1.187 2.354-2.196 3.125-2.869l1.232-1.035" />
		<path
			d="m-79.585 123.2 21.559 28.442-.999.759c-.59.467-1.419 1.035-2.179 1.691l-3.073 2.583-23.25-27.077 3.907-3.278c.971-.827 2.015-1.563 2.766-2.155l1.269-.965z" />
		<path stroke="#424242" stroke-miterlimit="10" stroke-width="5.6"
			d="m-75.902 143.137 1.232-1.035c.792-.648 1.887-1.622 3.267-2.706l4.773-3.632c1.776-1.289 3.729-2.582 5.65-3.918 1.943-1.305 3.968-2.482 5.824-3.653.922-.595 1.857-1.098 2.738-1.583l2.48-1.372 2.097-1.159 1.656-.818 1.444-.709" />
		<path
			d="m-43.34 102.309 13.781 32.922-3.681 1.583c-.924.388-1.804.873-2.484 1.191l-1.125.552-15.782-32.01 1.433-.703c.866-.409 1.994-1.01 3.168-1.512l4.69-2.023z" />
		<path stroke="#424242" stroke-miterlimit="10" stroke-width="5.6"
			d="M-44.74 122.552s8.375-4.229 17.258-7.234c8.848-3.11 18.056-4.914 18.056-4.914" />
		<path
			d="m-3.011 91.153 5.114 35.321-3.965.622c-.997.128-1.97.374-2.708.521l-1.226.258-7.262-34.943 1.562-.326c.938-.187 2.182-.483 3.445-.659l5.04-.794z" />
		<path stroke="#424242" stroke-miterlimit="10" stroke-width="5.6"
			d="m-9.426 110.404 1.575-.331 1.808-.379 2.366-.374c1.736-.255 3.752-.631 5.93-.893l6.838-.723 6.866-.375c2.192-.088 4.242-.038 5.997-.063l2.396-.008 1.845.086 1.607.075" />
		<path
			d="m38.785 90.361-3.793 35.487-3.989-.393c-.998-.096-2.002-.103-2.752-.149L27 125.248l1.606-35.653 1.594.075c.955.058 2.232.081 3.503.198l5.082.493z" />
		<path stroke="#424242" stroke-miterlimit="10" stroke-width="5.6"
			d="M27.802 107.422s9.378.315 18.608 1.977c9.248 1.552 18.189 4.394 18.189 4.394" />
		<path
			d="m79.509 100.02-12.562 33.405-3.772-1.357c-.935-.364-1.901-.632-2.62-.853a807.54 807.54 0 0 0-1.198-.364l10.485-34.115 1.526.467c.915.284 2.142.637 3.336 1.089l4.805 1.728z" />
		<path stroke="#424242" stroke-miterlimit="10" stroke-width="5.6"
			d="m64.599 113.793 1.539.47 1.765.544 2.254.811 2.667.959c.947.339 1.95.687 2.955 1.127 2.018.86 4.206 1.701 6.331 2.68 2.11 1.013 4.244 1.979 6.202 2.969l5.291 2.826c1.536.85 2.771 1.637 3.656 2.15l1.381.826" />
		<path
			d="m116.51 119.5-20.457 29.245-3.347-2.219c-.842-.547-1.658-1.134-2.309-1.512l-1.079-.642 18.644-30.433 1.367.82c.824.486 1.868 1.219 2.937 1.915l4.244 2.826z" />
		<path stroke="#424242" stroke-miterlimit="10" stroke-width="5.6"
			d="m98.641 129.155 1.381.825c.87.541 2.076 1.369 3.542 2.335l2.361 1.568c.833.564 1.671 1.215 2.56 1.858 1.764 1.305 3.679 2.654 5.468 4.167 3.683 2.892 7.145 6.051 9.71 8.445l4.173 4.103" />
		<path
			d="m147.493 147.545-27.039 23.295-.805-.963c-.495-.567-1.191-1.291-1.869-2.031l-1.873-2.028c-.506-.558-.859-.915-.859-.915l25.575-24.894s.447.454 1.094 1.159l2.381 2.573c.861.94 1.738 1.866 2.367 2.586l1.028 1.218z" />
		<path stroke="#424242" stroke-miterlimit="10" stroke-width="5.6"
			d="M127.837 152.456s.41.417 1.102 1.173l2.88 3.115c1.225 1.26 2.488 2.876 3.914 4.544.695.849 1.458 1.69 2.152 2.609l2.115 2.78c.701.937 1.434 1.851 2.098 2.792l1.917 2.788 1.792 2.607c.548.843 1.035 1.661 1.5 2.405l2.231 3.608c.527.878.794 1.399.794 1.399" />
		<path
			d="m170.602 182.404-31.984 15.836-.551-1.125a33.41 33.41 0 0 0-1.269-2.445l-1.939-3.509 30.95-17.771 2.471 4.468a50.166 50.166 0 0 1 1.617 3.114l.705 1.432z" />
		<path stroke="#424242" stroke-miterlimit="10" stroke-width="5.6"
			d="m150.333 182.275 2.832 5.121 2.649 5.381c.502.977.955 2.016 1.403 3.078l1.382 3.208.694 1.61.613 1.627 1.183 3.17c.809 2.042 1.391 4.007 1.925 5.679.521 1.676.998 3.061 1.259 4.051l.409 1.556" />
		<path
			d="m184.281 221.956-34.931 7.32-.256-1.227c-.17-.732-.319-1.727-.597-2.691l-1.021-3.875 34.415-9.452 1.296 4.939c.343 1.23.551 2.492.766 3.424l.328 1.562z" />
		<path stroke="#424242" stroke-miterlimit="10" stroke-width="5.6"
			d="m164.683 216.757.409 1.557c.249.993.658 2.399 1.054 4.109l1.231 5.871c.44 2.15.732 4.475 1.119 6.783l.27 1.732.183 1.73.355 3.364c.273 2.179.36 4.226.453 5.979l.227 4.236.006 1.609" />
		<path
			d="m187.688 263.613-35.656-1.547.06-1.252c.039-.751.101-1.752.071-2.756l-.016-4.014 35.684-.633.019 5.101c.026 1.276-.043 2.55-.088 3.506l-.074 1.595z" />
		<path stroke="#424242" stroke-miterlimit="10" stroke-width="5.6"
			d="m169.99 253.728.022 5.852-.279 5.991-.085 1.669-.166 1.704-.339 3.476c-.173 2.336-.605 4.641-.905 6.814-.173 1.083-.291 2.139-.491 3.125l-.556 2.779c-.35 1.72-.618 3.159-.844 4.158l-.394 1.561" />
		<path
			d="m180.616 304.861-34.132-10.428.367-1.198c.203-.723.553-1.666.77-2.645l.978-3.886 34.709 8.305-1.25 4.953c-.288 1.245-.714 2.451-.976 3.372l-.466 1.527z" />
		<path stroke="#424242" stroke-miterlimit="10" stroke-width="5.6"
			d="m165.953 290.857-.393 1.56c-.259.991-.588 2.417-1.057 4.109l-1.751 5.737c-.663 2.091-1.513 4.275-2.287 6.483-1.679 4.369-3.523 8.676-5.082 11.823-.744 1.59-1.374 2.911-1.879 3.803l-.758 1.419" />
		<path
			d="m163.475 343.01-30.464-18.593 2.062-3.445c.506-.866.951-1.767 1.313-2.426l.59-1.106 31.54 16.704-.751 1.406c-.459.839-1.035 1.978-1.676 3.08l-2.614 4.38z" />
		<path stroke="#424242" stroke-miterlimit="10" stroke-width="5.6"
			d="M152.746 325.792s-4.306 8.336-9.744 15.976l-4.074 5.54a23661.16 23661.16 0 0 1-3.779 4.658c-1.085 1.381-2.121 2.42-2.785 3.2l-1.072 1.2" />
		<path
			d="m137.457 375.712-24.936-25.534 2.814-2.866c.705-.715 1.419-1.421 1.905-1.998l.834-.938 26.438 23.975-1.063 1.187c-.623.727-1.522 1.63-2.416 2.539l-3.576 3.635z" />
		<path stroke="#424242" stroke-miterlimit="10" stroke-width="5.6"
			d="m131.292 356.365-1.072 1.2c-.659.786-1.726 1.79-2.944 3.054-1.237 1.246-2.637 2.743-4.278 4.202-1.631 1.467-3.281 3.134-5.11 4.599l-2.675 2.246-1.311 1.101-1.329 1.013c-1.752 1.321-3.364 2.586-4.786 3.615l-4.822 3.315" />
		<path
			d="m104.124 400.959-17.823-30.921.302-.166c.192-.106.47-.25.786-.456l2.343-1.454 2.347-1.447c.324-.191.582-.37.761-.496l.284-.196 19.684 29.771-.362.248c-.229.16-.558.385-.968.631l-2.982 1.849-2.987 1.842c-.404.257-.756.444-1 .581l-.385.214z" />
		<path stroke="#424242" stroke-miterlimit="10" stroke-width="5.6"
			d="m102.965 380.709-.347.238c-.223.161-.559.381-.998.645l-3.608 2.231c-.752.451-1.542.985-2.424 1.467l-2.769 1.531-2.961 1.637-3.132 1.544-3.136 1.539c-1.041.495-2.095.916-3.098 1.358-2.022.852-3.877 1.727-5.539 2.298l-3.975 1.483c-.959.357-1.51.556-1.51.556" />
		<path
			d="m65.508 417.105-9.509-34.399 1.212-.316c.728-.188 1.673-.524 2.63-.818l3.821-1.208 11.611 33.748-4.867 1.55c-1.22.376-2.43.79-3.355 1.035l-1.543.408z" />
		<path stroke="#424242" stroke-miterlimit="10" stroke-width="5.6"
			d="m69.468 397.238-5.578 1.771-1.305.414-1.417.374-3.06.805c-1.064.267-2.151.593-3.278.834l-3.419.717-3.418.716-3.342.526c-2.169.33-4.186.701-5.938.841l-5.819.615" />
	</g>
	<path fill="#424242"
		d="M256.033 69.726c49.683 0 96.391 19.347 131.522 54.478s54.478 81.839 54.478 131.522-19.347 96.391-54.478 131.522-81.839 54.478-131.522 54.478-96.391-19.347-131.522-54.478-54.478-81.839-54.478-131.522 19.347-96.391 54.478-131.522 81.839-54.478 131.522-54.478m0-14c-110.457 0-200 89.543-200 200s89.543 200 200 200 200-89.543 200-200-89.543-200-200-200z" />
</svg>