<svg width="36" height="36" xmlns="http://www.w3.org/2000/svg" viewBox="0 0 512 512">
	<circle cx="256.003" cy="256.127" r="199.932" fill="#424242" />
	<path fill="#212121"
		d="M256 69.941c49.683 0 96.391 19.347 131.522 54.478S442 206.258 442 255.941s-19.347 96.391-54.478 131.522S305.683 441.941 256 441.941s-96.391-19.347-131.522-54.478S70 305.624 70 255.941s19.347-96.391 54.478-131.522S206.317 69.941 256 69.941m0-14c-110.457 0-200 89.543-200 200s89.543 200 200 200 200-89.543 200-200-89.543-200-200-200z" />
	<circle cx="213.5" cy="160.14" r="28.979" fill="#212121" stroke="#212121" stroke-miterlimit="10"
		stroke-width="4.6" />
	<circle cx="298.5" cy="160.14" r="28.979" fill="#212121" stroke="#212121" stroke-miterlimit="10"
		stroke-width="4.6" />
	<circle cx="256" cy="248.14" r="28.979" fill="#212121" stroke="#212121" stroke-miterlimit="10" stroke-width="4.6" />
</svg>