<svg xmlns="http://www.w3.org/2000/svg" width="36" height="36" viewBox="0 0 512 512">
	<circle cx="256" cy="256" r="200" fill="#424242" />
	<path fill="#212121" d="M256 70c49.683 0 96.391 19.347 131.522 54.478S442 206.317 442 256s-19.347 96.391-54.478 131.522S305.683 442 256 442s-96.391-19.347-131.522-54.478S70 305.683 70 256s19.347-96.391 54.478-131.522S206.317 70 256 70m0-14C145.543 56 56 145.543 56 256s89.543 200 200 200 200-89.543 200-200S366.457 56 256 56z" />
	<circle cx="256" cy="256" r="89.817" fill="#eee" />
	<path fill="#424242" d="M287.807 230.079c0 5.111-1.314 9.66-3.94 13.647-2.627 3.988-6.209 7.128-10.746 9.421 2.579 1.194 4.918 2.639 7.021 4.334a27.303 27.303 0 0 1 5.373 5.767 25.743 25.743 0 0 1 3.403 7.056c.788 2.555 1.182 5.265 1.182 8.131 0 4.871-.86 9.159-2.579 12.859-1.719 3.702-4.108 6.818-7.164 9.349-3.057 2.532-6.662 4.442-10.817 5.731s-8.668 1.934-13.54 1.934c-4.871 0-9.385-.645-13.54-1.934s-7.773-3.199-10.853-5.731c-3.081-2.531-5.493-5.647-7.236-9.349-1.744-3.701-2.615-7.988-2.615-12.859 0-2.866.394-5.576 1.182-8.131a26.296 26.296 0 0 1 3.367-7.056c1.456-2.149 3.235-4.083 5.337-5.803a30.711 30.711 0 0 1 7.021-4.298c-4.49-2.292-8.036-5.432-10.638-9.421-2.604-3.987-3.904-8.536-3.904-13.647 0-4.632.788-8.751 2.364-12.358 1.576-3.605 3.772-6.638 6.591-9.098 2.817-2.459 6.172-4.322 10.065-5.588 3.892-1.265 8.155-1.898 12.788-1.898 4.632 0 8.907.634 12.823 1.898 3.916 1.266 7.283 3.129 10.101 5.588 2.817 2.46 5.015 5.493 6.591 9.098 1.576 3.607 2.363 7.726 2.363 12.358zm-15.115 47.497c0-2.579-.406-4.931-1.218-7.057-.813-2.125-1.947-3.94-3.403-5.444-1.458-1.504-3.224-2.674-5.301-3.51-2.078-.835-4.382-1.254-6.913-1.254-2.579 0-4.896.419-6.949 1.254-2.054.836-3.797 2.006-5.23 3.51-1.433 1.504-2.543 3.32-3.331 5.444-.788 2.126-1.182 4.477-1.182 7.057 0 2.627.394 4.979 1.182 7.056.788 2.078 1.909 3.845 3.367 5.301 1.456 1.457 3.224 2.568 5.301 3.331 2.077.765 4.406 1.146 6.985 1.146 5.253 0 9.349-1.48 12.286-4.442 2.937-2.96 4.406-7.091 4.406-12.392zm-2.221-46.852c0-2.292-.347-4.393-1.039-6.304-.693-1.91-1.66-3.557-2.901-4.943-1.242-1.385-2.771-2.459-4.585-3.224-1.815-.763-3.821-1.146-6.018-1.146-4.442 0-7.952 1.397-10.531 4.191-2.579 2.794-3.869 6.603-3.869 11.426 0 2.341.333 4.477 1.003 6.412.668 1.934 1.623 3.582 2.866 4.943 1.241 1.361 2.758 2.412 4.549 3.152 1.791.741 3.808 1.11 6.053 1.11 2.244 0 4.263-.369 6.053-1.11 1.791-.74 3.307-1.791 4.549-3.152 1.241-1.361 2.196-3.009 2.866-4.943.669-1.935 1.004-4.072 1.004-6.412z" />
</svg>